<svg width="30" height="29" viewBox="0 0 30 29" fill="none" xmlns="http://www.w3.org/2000/svg">
<path d="M3.91667 0H26.0833C26.9232 0 27.7286 0.33363 28.3225 0.927495C28.9164 1.52136 29.25 2.32681 29.25 3.16667V25.3333C29.25 27.0908 27.8408 28.5 26.0833 28.5H3.91667C3.07681 28.5 2.27136 28.1664 1.6775 27.5725C1.08363 26.9786 0.75 26.1732 0.75 25.3333V3.16667C0.75 1.425 2.175 0 3.91667 0ZM8.66667 22.1667H21.3333V19H8.66667V22.1667ZM21.3333 11.0833H17.375V6.33333H12.625V11.0833H8.66667L15 17.4167L21.3333 11.0833Z" fill="#7CB1D0"/>
</svg>
